<svg id="Layer_1" data-name="Layer 1" xmlns="http://www.w3.org/2000/svg" viewBox="0 0 140 119.589"><defs><style>.cls-1{fill:#fff;}</style></defs><title>pathway</title><path class="cls-1" d="M164.066,120.28H154.43V105.935a10.134,10.134,0,0,0-10.122-10.122H104.187V79.72h9.636a5.935,5.935,0,0,0,5.934-5.935V46.14a5.934,5.934,0,0,0-5.934-5.934H86.177a5.934,5.934,0,0,0-5.934,5.934V73.785a5.935,5.935,0,0,0,5.934,5.935h9.636V95.813H55.691A10.134,10.134,0,0,0,45.57,105.935V120.28H35.934A5.935,5.935,0,0,0,30,126.215V153.86a5.934,5.934,0,0,0,5.934,5.934H63.58a5.934,5.934,0,0,0,5.934-5.934V126.215a5.935,5.935,0,0,0-5.934-5.935H53.944V105.935a1.75,1.75,0,0,1,1.747-1.748H95.813V120.28H86.177a5.935,5.935,0,0,0-5.934,5.935V153.86a5.934,5.934,0,0,0,5.934,5.934h27.646a5.934,5.934,0,0,0,5.934-5.934V126.215a5.935,5.935,0,0,0-5.934-5.935h-9.636V104.187h40.121a1.751,1.751,0,0,1,1.748,1.748V120.28H136.42a5.935,5.935,0,0,0-5.934,5.935V153.86a5.934,5.934,0,0,0,5.934,5.934h27.646A5.934,5.934,0,0,0,170,153.86V126.215A5.935,5.935,0,0,0,164.066,120.28Z" transform="translate(-30 -40.206)"/></svg>