<svg id="Layer_1" data-name="Layer 1" xmlns="http://www.w3.org/2000/svg" viewBox="0 0 140 161.658"><defs><style>.cls-1,.cls-2,.cls-3,.cls-4,.cls-5,.cls-6{fill:#fff;}.cls-1{opacity:0.25;}.cls-2{opacity:0.5;}.cls-3{opacity:0.63;}.cls-4{opacity:0.75;}.cls-5{opacity:0.88;}</style></defs><title>Reactome_Isotype</title><polygon class="cls-1" points="70 26.943 70 0 0 40.415 0 121.244 23.334 107.772 23.334 53.886 70 26.943"/><polygon class="cls-2" points="23.334 107.772 23.334 134.715 46.667 121.244 46.667 94.301 23.334 107.772"/><polygon class="cls-2" points="93.333 40.415 93.333 13.472 70 26.943 70 53.886 93.333 40.415"/><polygon class="cls-3" points="46.667 67.358 70 53.886 70 26.943 23.334 53.886 23.334 107.772 46.667 94.301 46.667 67.358"/><polygon class="cls-4" points="93.333 94.301 93.333 94.301 93.333 121.244 116.667 107.772 116.667 80.829 93.333 94.3 93.333 94.301"/><polygon class="cls-4" points="116.667 53.886 116.667 26.943 93.333 40.415 93.333 67.358 116.667 53.886"/><polygon class="cls-4" points="46.667 121.244 46.667 148.187 70 134.715 70 107.772 46.667 121.244"/><polygon class="cls-5" points="70 80.829 93.333 67.358 93.333 40.415 70 53.886 70 80.829 46.667 94.301 46.667 121.244 70 107.772 70 80.829"/><polygon class="cls-6" points="46.667 67.358 46.667 94.301 70 80.829 70 53.886 46.667 67.358"/><polygon class="cls-6" points="116.667 53.886 93.333 67.358 70 80.829 70 107.772 70 134.715 70 161.658 93.333 148.187 93.333 121.244 93.333 94.301 93.333 94.301 93.333 94.3 116.667 80.829 140 67.358 140 40.415 116.667 53.886"/></svg>