<svg id="Layer_1" data-name="Layer 1" xmlns="http://www.w3.org/2000/svg" viewBox="0 0 200 61.745"><defs><style>.cls-1{fill:#0d5184;}.cls-2{fill:#aec5d6;}.cls-3{fill:#5e8bad;}</style></defs><title>IDG_reactome</title><g id="Logo"><g id="IDG"><path class="cls-1" d="M117.581,129.635a2.481,2.481,0,0,1-.741-1.83V94.314a2.466,2.466,0,0,1,.741-1.856,2.562,2.562,0,0,1,4.4,1.856v33.491a2.533,2.533,0,0,1-.718,1.83,2.66,2.66,0,0,1-3.686,0Z" transform="translate(0 -69.127)"/><path class="cls-1" d="M132.62,129.635a2.481,2.481,0,0,1-.741-1.83V94.314a2.466,2.466,0,0,1,.741-1.856,2.538,2.538,0,0,1,1.832-.717h8.954a19.788,19.788,0,0,1,9.944,2.474,17.465,17.465,0,0,1,6.776,6.852,21.741,21.741,0,0,1,0,19.96,17.405,17.405,0,0,1-6.776,6.877,19.767,19.767,0,0,1-9.944,2.473h-8.954A2.488,2.488,0,0,1,132.62,129.635Zm10.786-3.809a14.355,14.355,0,0,0,7.345-1.88,13.051,13.051,0,0,0,5.047-5.268,17.025,17.025,0,0,0,0-15.262,13.106,13.106,0,0,0-5.047-5.243,14.374,14.374,0,0,0-7.345-1.88h-6.381v29.533Z" transform="translate(0 -69.127)"/><path class="cls-1" d="M199.134,111.059a2.52,2.52,0,0,1,.719,1.856v11.822a2.228,2.228,0,0,1-.793,1.832,19.184,19.184,0,0,1-21.791,1.681,18.866,18.866,0,0,1-6.9-7.172,20.377,20.377,0,0,1-2.522-10.043,20.139,20.139,0,0,1,2.522-9.968,19.123,19.123,0,0,1,6.9-7.174,18.349,18.349,0,0,1,9.67-2.647,19.179,19.179,0,0,1,6.507.991,19.568,19.568,0,0,1,5.566,3.265,2.349,2.349,0,0,1,.791.915,2.892,2.892,0,0,1,.2,1.114,2.1,2.1,0,0,1-.717,1.632,2.468,2.468,0,0,1-1.707.642,2.625,2.625,0,0,1-1.683-.642,14.427,14.427,0,0,0-3.957-2.5,13.765,13.765,0,0,0-5-.765,13.118,13.118,0,0,0-7.1,2.027,14.652,14.652,0,0,0-5.146,5.516,16.127,16.127,0,0,0,0,15.211,14.676,14.676,0,0,0,5.146,5.491,13.1,13.1,0,0,0,7.1,2.029,14.407,14.407,0,0,0,7.966-2.473v-8.8h-6.828a2.667,2.667,0,0,1-1.854-.644,2.213,2.213,0,0,1,0-3.265,2.666,2.666,0,0,1,1.854-.642h9.252A2.454,2.454,0,0,1,199.134,111.059Z" transform="translate(0 -69.127)"/></g><g id="reactome"><path class="cls-1" d="M122.229,72.644a.476.476,0,0,1-.017.14.463.463,0,0,1-.167.271.526.526,0,0,1-.306.079,3.028,3.028,0,0,1-.411-.035,3.278,3.278,0,0,0-.429-.035,3.232,3.232,0,0,0-1.557.368,2.7,2.7,0,0,0-1.067,1.015,2.78,2.78,0,0,0-.385,1.452v5.319a.529.529,0,0,1-.14.376.563.563,0,0,1-.761,0,.511.511,0,0,1-.149-.376V72.7a.5.5,0,0,1,.149-.385.587.587,0,0,1,.761,0,.52.52,0,0,1,.14.385v1.085a3.706,3.706,0,0,1,1.3-1.26,3.369,3.369,0,0,1,1.714-.455Q122.23,72.067,122.229,72.644Z" transform="translate(0 -69.127)"/><path class="cls-1" d="M129.709,72.688a4.178,4.178,0,0,1,1.566,1.671,5.16,5.16,0,0,1,.559,2.432.466.466,0,0,1-.14.359.515.515,0,0,1-.367.131H124a3.913,3.913,0,0,0,.542,1.846,3.466,3.466,0,0,0,1.313,1.268,3.721,3.721,0,0,0,1.837.455,4.236,4.236,0,0,0,1.373-.236,2.95,2.95,0,0,0,1.094-.621.58.58,0,0,1,.367-.14.46.46,0,0,1,.35.805,4.443,4.443,0,0,1-1.461.84,4.989,4.989,0,0,1-1.723.332,4.831,4.831,0,0,1-2.459-.621,4.422,4.422,0,0,1-1.688-1.732,5.119,5.119,0,0,1-.612-2.511,5.468,5.468,0,0,1,.568-2.528,4.234,4.234,0,0,1,1.592-1.732,4.418,4.418,0,0,1,2.336-.622A4.357,4.357,0,0,1,129.709,72.688Zm-4.584,1.286a3.845,3.845,0,0,0-1.111,2.4h6.806a3.655,3.655,0,0,0-1.05-2.4,3.215,3.215,0,0,0-2.345-.91A3.173,3.173,0,0,0,125.125,73.974Z" transform="translate(0 -69.127)"/><path class="cls-1" d="M140.618,72.706a4.631,4.631,0,0,1,1.758,1.758,4.96,4.96,0,0,1,.639,2.5v4.252a.529.529,0,0,1-.14.376.53.53,0,0,1-.91-.376V79.853a4.077,4.077,0,0,1-1.584,1.461,4.717,4.717,0,0,1-2.248.533,4.96,4.96,0,0,1-2.5-.638,4.626,4.626,0,0,1-1.758-1.759,5.183,5.183,0,0,1,0-4.986,4.624,4.624,0,0,1,1.758-1.758,5.185,5.185,0,0,1,4.987,0Zm-.525,7.654a3.636,3.636,0,0,0,1.373-1.4,4.236,4.236,0,0,0,0-3.989,3.706,3.706,0,0,0-1.373-1.408,3.845,3.845,0,0,0-5.3,1.408,4.177,4.177,0,0,0,0,3.989,3.7,3.7,0,0,0,1.383,1.4,4.033,4.033,0,0,0,3.919,0Z" transform="translate(0 -69.127)"/><path class="cls-1" d="M147.441,81.209a4.578,4.578,0,0,1-1.706-1.759,5.032,5.032,0,0,1-.621-2.484,5.326,5.326,0,0,1,.578-2.493,4.4,4.4,0,0,1,1.609-1.75,4.3,4.3,0,0,1,2.31-.639,4.733,4.733,0,0,1,2.047.438,4.509,4.509,0,0,1,1.61,1.294.563.563,0,0,1,.122.3.429.429,0,0,1-.245.385.419.419,0,0,1-.28.105.482.482,0,0,1-.4-.21,3.567,3.567,0,0,0-2.852-1.33,3.238,3.238,0,0,0-3.018,1.89,4.587,4.587,0,0,0-.429,2.012,4.19,4.19,0,0,0,.472,1.994,3.53,3.53,0,0,0,1.313,1.4,3.64,3.64,0,0,0,1.924.508,3.487,3.487,0,0,0,2.467-.858.5.5,0,0,1,.368-.157.43.43,0,0,1,.315.122.5.5,0,0,1,.175.385.4.4,0,0,1-.14.315,4.348,4.348,0,0,1-1.435.866,4.982,4.982,0,0,1-1.75.306A4.7,4.7,0,0,1,147.441,81.209Z" transform="translate(0 -69.127)"/><path class="cls-1" d="M160.73,80.824a.532.532,0,0,1,.148.394.51.51,0,0,1-.148.376.535.535,0,0,1-.394.148h-.4a3.342,3.342,0,0,1-1.714-.437,3.09,3.09,0,0,1-1.173-1.2,3.52,3.52,0,0,1-.419-1.724V73.467h-1.365a.473.473,0,1,1,0-.945h1.365V69.67a.533.533,0,0,1,.148-.394.512.512,0,0,1,.377-.149.512.512,0,0,1,.542.543v2.852H160a.473.473,0,1,1,0,.945h-2.309v4.916a2.255,2.255,0,0,0,.63,1.654,2.188,2.188,0,0,0,1.627.638h.385A.536.536,0,0,1,160.73,80.824Z" transform="translate(0 -69.127)"/><path class="cls-1" d="M164.938,81.209a4.629,4.629,0,0,1-1.759-1.759,5.183,5.183,0,0,1,0-4.986,4.626,4.626,0,0,1,1.759-1.758,5.183,5.183,0,0,1,4.986,0,4.631,4.631,0,0,1,1.758,1.758,5.183,5.183,0,0,1,0,4.986,4.633,4.633,0,0,1-1.758,1.759,5.19,5.19,0,0,1-4.986,0Zm4.461-.849a3.646,3.646,0,0,0,1.374-1.4,4.243,4.243,0,0,0,0-3.989,3.716,3.716,0,0,0-1.374-1.408,3.843,3.843,0,0,0-5.3,1.408,4.169,4.169,0,0,0,0,3.989,3.694,3.694,0,0,0,1.382,1.4,4.033,4.033,0,0,0,3.919,0Z" transform="translate(0 -69.127)"/><path class="cls-1" d="M186.913,72.574a3.508,3.508,0,0,1,1.277,1.461,4.807,4.807,0,0,1,.455,2.126v5.057a.529.529,0,0,1-.14.376.5.5,0,0,1-.385.148.508.508,0,0,1-.525-.524V76.161a3.322,3.322,0,0,0-.717-2.2,2.291,2.291,0,0,0-1.837-.857,2.58,2.58,0,0,0-1.977.8,2.883,2.883,0,0,0-.718,2.135v5.179a.525.525,0,0,1-.14.376.5.5,0,0,1-.385.148.508.508,0,0,1-.525-.524V76.161a3.322,3.322,0,0,0-.717-2.2,2.29,2.29,0,0,0-1.837-.857A2.638,2.638,0,0,0,176,75.864v5.354a.529.529,0,0,1-.14.376.563.563,0,0,1-.761,0,.511.511,0,0,1-.149-.376V72.7a.5.5,0,0,1,.149-.385.587.587,0,0,1,.761,0,.52.52,0,0,1,.14.385v.682a3.4,3.4,0,0,1,1.207-.98,3.474,3.474,0,0,1,1.54-.35,3.392,3.392,0,0,1,1.82.5,3.579,3.579,0,0,1,1.277,1.374,3.491,3.491,0,0,1,1.312-1.374,3.636,3.636,0,0,1,1.89-.5A3.4,3.4,0,0,1,186.913,72.574Z" transform="translate(0 -69.127)"/><path class="cls-1" d="M197.874,72.688a4.164,4.164,0,0,1,1.566,1.671,5.161,5.161,0,0,1,.56,2.432.47.47,0,0,1-.14.359.519.519,0,0,1-.368.131h-7.331a3.914,3.914,0,0,0,.543,1.846,3.464,3.464,0,0,0,1.312,1.268,3.723,3.723,0,0,0,1.837.455,4.242,4.242,0,0,0,1.374-.236,2.945,2.945,0,0,0,1.093-.621.583.583,0,0,1,.368-.14.461.461,0,0,1,.35.805,4.464,4.464,0,0,1-1.461.84,5,5,0,0,1-1.724.332,4.828,4.828,0,0,1-2.458-.621,4.422,4.422,0,0,1-1.688-1.732,5.108,5.108,0,0,1-.613-2.511,5.468,5.468,0,0,1,.569-2.528,4.234,4.234,0,0,1,1.592-1.732,4.413,4.413,0,0,1,2.336-.622A4.356,4.356,0,0,1,197.874,72.688Zm-4.584,1.286a3.85,3.85,0,0,0-1.111,2.4h6.806a3.645,3.645,0,0,0-1.05-2.4,3.211,3.211,0,0,0-2.344-.91A3.177,3.177,0,0,0,193.29,73.974Z" transform="translate(0 -69.127)"/></g><g id="Mark"><polygon class="cls-2" points="93.578 38.59 53.473 15.436 13.368 38.59 27.292 46.629 53.473 31.442 79.654 46.629 93.578 38.59"/><polygon class="cls-3" points="53.473 61.745 79.654 46.629 53.473 31.442 27.292 46.629 53.473 61.745"/><path class="cls-1" d="M53.473,84.564l-40.1,23.154,40.1,23.154h0l40.105-23.155Zm0,1.157,38.1,22-12.366,7.139L53.473,100,27.739,114.857l-12.365-7.139Zm12.366,36.854-12.366-7.139-12.366,7.139-12.365-7.139,24.731-14.279L78.2,115.436Z" transform="translate(0 -69.127)"/><polygon class="cls-1" points="2.674 32.416 53.473 3.087 104.272 32.415 106.946 30.872 53.473 0 0 30.872 2.674 32.416"/></g></g></svg>